<svg xmlns="http://www.w3.org/2000/svg" xmlns:xlink="http://www.w3.org/1999/xlink" xml:space="preserve" version="1.1" style="shape-rendering:geometricPrecision;text-rendering:geometricPrecision;image-rendering:optimizeQuality;" viewBox="0 0 333.33 416.66249999999997" x="0px" y="0px" fill-rule="evenodd" clip-rule="evenodd"><defs><style type="text/css">
  
    .fil0 {fill:black}
  
  </style></defs><g><path class="fil0" d="M191.31 21.59l9.46 10.22c7.6,8.2 17.76,11.91 28.85,10.5l13.82 -1.75c9.63,-1.22 18.37,1.36 25.8,7.59 7.43,6.24 11.48,14.4 11.96,24.09l0.68 13.91c0.55,11.17 5.95,20.54 15.35,26.59l11.71 7.54c8.15,5.26 13.2,12.85 14.88,22.4 1.69,9.56 -0.46,18.41 -6.32,26.14l-8.42 11.09c-6.76,8.91 -8.64,19.56 -5.33,30.24l4.12 13.3c2.87,9.27 1.85,18.33 -3,26.73 -4.85,8.4 -12.19,13.81 -21.65,15.96l-13.58 3.09c-10.91,2.48 -19.19,9.43 -23.52,19.74l-5.39 12.84c-3.76,8.94 -10.36,15.23 -19.48,18.55 -9.12,3.32 -18.21,2.74 -26.84,-1.69l-12.39 -6.37c-9.94,-5.11 -20.76,-5.11 -30.71,0l-12.39 6.37c-8.63,4.43 -17.72,5.01 -26.84,1.69 -9.12,-3.32 -15.72,-9.6 -19.48,-18.55l-5.39 -12.84c-4.33,-10.31 -12.62,-17.26 -23.52,-19.74l-13.58 -3.09c-9.46,-2.15 -16.8,-7.56 -21.65,-15.96 -4.85,-8.4 -5.87,-17.46 -3,-26.73l4.12 -13.3c3.31,-10.68 1.43,-21.33 -5.33,-30.24l-8.42 -11.09c-5.87,-7.73 -8.01,-16.59 -6.32,-26.14 1.68,-9.55 6.73,-17.14 14.88,-22.4l11.71 -7.55c9.4,-6.06 14.81,-15.42 15.35,-26.59l0.68 -13.91c0.48,-9.69 4.53,-17.85 11.96,-24.09 7.43,-6.24 16.17,-8.81 25.8,-7.59l13.81 1.75c11.09,1.4 21.26,-2.3 28.86,-10.5l9.46 -10.22c6.59,-7.12 14.94,-10.77 24.65,-10.77 9.7,0 18.05,3.65 24.65,10.77zm51.82 143.81c-0.26,-4.12 2.87,-7.66 6.98,-7.92 4.12,-0.26 7.67,2.87 7.92,6.98 0.05,0.76 0.09,1.75 0.13,2.98 0.05,1.52 0.07,2.5 0.07,2.97 0,25.29 -10.25,48.19 -26.82,64.76 -16.57,16.57 -39.47,26.82 -64.76,26.82 -25.29,0 -48.18,-10.25 -64.76,-26.82 -16.57,-16.57 -26.82,-39.47 -26.82,-64.76 0,-25.29 10.25,-48.18 26.82,-64.75 16.57,-16.57 39.47,-26.83 64.76,-26.83 16.91,0 32.78,4.61 46.41,12.65 11.41,6.72 21.22,15.83 28.76,26.65l18.72 -17.17c3.03,-2.79 7.76,-2.6 10.55,0.44 2.79,3.04 2.59,7.76 -0.44,10.55l-98.23 90.11 -0.01 -0.02 -0.05 0.04c-3.05,2.76 -7.76,2.52 -10.52,-0.53l-36.75 -40.63c-2.76,-3.05 -2.52,-7.76 0.53,-10.52 3.05,-2.76 7.76,-2.52 10.52,0.53l31.7 35.06 62.87 -57.67c-6.45,-9.8 -15.07,-18.02 -25.19,-23.98 -11.37,-6.7 -24.65,-10.54 -38.87,-10.54 -21.16,0 -40.31,8.57 -54.17,22.44 -13.87,13.86 -22.44,33.02 -22.44,54.17 0,21.16 8.57,40.31 22.44,54.18 13.86,13.86 33.02,22.44 54.17,22.44 21.16,0 40.31,-8.57 54.17,-22.44 13.87,-13.86 22.44,-33.02 22.44,-54.18 0,-1.36 -0,-2.2 -0.02,-2.5 -0.02,-0.61 -0.06,-1.45 -0.13,-2.51z"/></g></svg>